<svg width="17" height="17" viewBox="0 0 17 17" fill="none" xmlns="http://www.w3.org/2000/svg">
<path fill-rule="evenodd" clip-rule="evenodd" d="M3.4937 12.6998C4.5666 13.3752 5.82789 13.7356 7.11812 13.7354C8.65134 13.7333 10.1283 13.2233 11.2957 12.3043L14.2191 15.0248C14.3647 15.161 14.5614 15.2375 14.7666 15.2378C14.9209 15.2372 15.0716 15.1935 15.1997 15.1123C15.3278 15.0311 15.4274 14.9159 15.4862 14.7814C15.545 14.6469 15.5602 14.499 15.53 14.3564C15.4997 14.2137 15.4253 14.0827 15.3161 13.9798L12.366 11.2326C13.1871 10.183 13.6385 8.90733 13.6403 7.58745C13.6403 6.37144 13.2578 5.18276 12.541 4.17171C11.8241 3.16065 10.8053 2.37265 9.61324 1.90735C8.4212 1.44205 7.10944 1.32036 5.84401 1.55766C4.57859 1.79496 3.41628 2.38059 2.50402 3.24051C1.59176 4.10042 0.97053 5.19598 0.718946 6.38864C0.467363 7.5813 0.596778 8.8175 1.09068 9.94089C1.58457 11.0643 2.42081 12.0244 3.4937 12.6998ZM4.36085 3.69818C5.17708 3.18438 6.13659 2.91025 7.11812 2.91044C8.43356 2.9123 9.69449 3.40569 10.6246 4.28242C11.5546 5.15916 12.0779 6.34769 12.0796 7.58745C12.0796 8.51251 11.7885 9.41681 11.2432 10.186C10.6978 10.9551 9.92273 11.5546 9.01589 11.9085C8.10904 12.2625 7.11118 12.3551 6.14852 12.1745C5.18586 11.994 4.30166 11.5484 3.60768 10.8942C2.9137 10.2401 2.44113 9.40658 2.24977 8.49927C2.05841 7.59195 2.15688 6.65154 2.53265 5.79695C2.90841 4.94236 3.54463 4.21198 4.36085 3.69818Z" fill="white"/>
</svg>
